<svg width="256" height="256" viewBox="0 0 256 256" fill="none" xmlns="http://www.w3.org/2000/svg">
  <rect width="256" height="256" rx="34" fill="#0f0c08"/>
  <path d="M50 170c12 34 42 52 78 52s66-18 78-52c10-28 3-67-20-91-14-15-33-23-58-23s-44 8-58 23c-23 24-30 63-20 91Z" fill="#f0b429"/>
  <path d="M67 103c-15-21-19-43-9-59 20 7 34 19 44 37l-35 22ZM189 103c15-21 19-43 9-59-20 7-34 19-44 37l35 22Z" fill="#d98716"/>
  <path d="M77 58c8 6 15 14 20 24L72 96c-4-14-3-27 5-38ZM179 58c-8 6-15 14-20 24l25 14c4-14 3-27-5-38Z" fill="#ffe36b"/>
  <rect x="59" y="118" width="138" height="30" rx="15" fill="#15100b"/>
  <rect x="79" y="122" width="41" height="22" rx="8" fill="#111827"/>
  <rect x="136" y="122" width="41" height="22" rx="8" fill="#111827"/>
  <path d="M120 132h16" stroke="#f0b429" stroke-width="6" stroke-linecap="round"/>
  <circle cx="95" cy="133" r="7" fill="#8fe1ff"/>
  <circle cx="153" cy="133" r="7" fill="#8fe1ff"/>
  <path d="M108 168c9 8 31 8 40 0" stroke="#1a1510" stroke-width="8" stroke-linecap="round"/>
  <path d="M128 146l-12 14h24l-12-14Z" fill="#8c4a12"/>
  <path d="M66 207h124" stroke="#f7c948" stroke-width="10" stroke-linecap="round"/>
  <path d="M86 216h84" stroke="#2a2015" stroke-width="8" stroke-linecap="round"/>
</svg>
