<svg width="128" height="128" viewBox="0 0 128 128" fill="none" xmlns="http://www.w3.org/2000/svg">
  <defs>
    <linearGradient id="gold" x1="22" y1="18" x2="103" y2="108" gradientUnits="userSpaceOnUse"><stop stop-color="#FFE36B"/><stop offset=".5" stop-color="#F0B429"/><stop offset="1" stop-color="#8C5709"/></linearGradient>
    <filter id="shadow" x="14" y="15" width="100" height="99" filterUnits="userSpaceOnUse"><feDropShadow dx="0" dy="8" stdDeviation="5" flood-color="#000" flood-opacity=".45"/></filter>
  </defs>
  <g filter="url(#shadow)">
    <path d="M28 51H100V99H28V51Z" fill="#17110C"/>
    <path d="M34 57H94V93H34V57Z" fill="#2A2015"/>
    <path d="M25 42L35 24H93L103 42V51C103 58 97 64 90 64C83 64 78 58 78 51C78 58 72 64 64 64C56 64 50 58 50 51C50 58 45 64 38 64C31 64 25 58 25 51V42Z" fill="url(#gold)"/>
    <path d="M35 24H93L98 33H30L35 24Z" fill="#FFF0A3" opacity=".55"/>
    <path d="M50 42H78V52C78 59 72 64 64 64C56 64 50 59 50 52V42Z" fill="#F8D36A"/>
    <path d="M38 72H58V93H38V72Z" fill="#111"/>
    <path d="M68 72H90V84H68V72Z" fill="#66D9FF"/>
    <path d="M68 88H90V93H68V88Z" fill="#F0B429"/>
  </g>
</svg>
